<?xml version="1.0" encoding="UTF-8" standalone="no"?>
<!DOCTYPE svg PUBLIC "-//W3C//DTD SVG 1.1//EN"
 "http://www.w3.org/Graphics/SVG/1.1/DTD/svg11.dtd">
<!-- Generated by graphviz version 2.43.0 (0)
 -->
<!-- Title: G Pages: 1 -->
<svg width="1855pt" height="809pt"
 viewBox="0.00 0.00 1855.00 809.00" xmlns="http://www.w3.org/2000/svg" xmlns:xlink="http://www.w3.org/1999/xlink">
<g id="graph0" class="graph" transform="scale(1 1) rotate(0) translate(4 805)">
<title>G</title>
<polygon fill="white" stroke="transparent" points="-4,4 -4,-805 1851,-805 1851,4 -4,4"/>
<g id="clust1" class="cluster">
<title>cluster_module.apigw</title>
<polygon fill="none" stroke="black" points="863.5,-556 863.5,-793 1839,-793 1839,-556 863.5,-556"/>
<text text-anchor="middle" x="1351.25" y="-777.8" font-family="sans-serif" font-size="14.00">module.apigw</text>
</g>
<g id="clust2" class="cluster">
<title>cluster_module.job_queue</title>
<polygon fill="none" stroke="black" points="231.5,-199 231.5,-274 447.5,-274 447.5,-199 231.5,-199"/>
<text text-anchor="middle" x="339.5" y="-258.8" font-family="sans-serif" font-size="14.00">module.job_queue</text>
</g>
<g id="clust3" class="cluster">
<title>cluster_module.job_table</title>
<polygon fill="none" stroke="black" points="233.5,-282 233.5,-357 445.5,-357 445.5,-282 233.5,-282"/>
<text text-anchor="middle" x="339.5" y="-341.8" font-family="sans-serif" font-size="14.00">module.job_table</text>
</g>
<g id="clust4" class="cluster">
<title>cluster_module.producer_lambda</title>
<polygon fill="none" stroke="black" points="8,-365 8,-548 1110,-548 1110,-365 8,-365"/>
<text text-anchor="middle" x="559" y="-532.8" font-family="sans-serif" font-size="14.00">module.producer_lambda</text>
</g>
<g id="clust5" class="cluster">
<title>cluster_module.worker_lambda</title>
<polygon fill="none" stroke="black" points="230,-8 230,-191 1522,-191 1522,-8 230,-8"/>
<text text-anchor="middle" x="876" y="-175.8" font-family="sans-serif" font-size="14.00">module.worker_lambda</text>
</g>
<!-- module.apigw.aws_apigatewayv2_api.this -->
<g id="node1" class="node">
<title>module.apigw.aws_apigatewayv2_api.this</title>
<polygon fill="none" stroke="black" points="1106.5,-654 901.5,-654 901.5,-618 1106.5,-618 1106.5,-654"/>
<text text-anchor="middle" x="1004" y="-632.3" font-family="sans-serif" font-size="14.00">aws_apigatewayv2_api.this</text>
</g>
<!-- module.apigw.aws_apigatewayv2_integration.lambda -->
<g id="node2" class="node">
<title>module.apigw.aws_apigatewayv2_integration.lambda</title>
<polygon fill="none" stroke="black" points="1489,-654 1203,-654 1203,-618 1489,-618 1489,-654"/>
<text text-anchor="middle" x="1346" y="-632.3" font-family="sans-serif" font-size="14.00">aws_apigatewayv2_integration.lambda</text>
</g>
<!-- module.apigw.aws_apigatewayv2_integration.lambda&#45;&gt;module.apigw.aws_apigatewayv2_api.this -->
<g id="edge1" class="edge">
<title>module.apigw.aws_apigatewayv2_integration.lambda&#45;&gt;module.apigw.aws_apigatewayv2_api.this</title>
<path fill="none" stroke="black" d="M1202.78,-636C1174.01,-636 1144.15,-636 1116.62,-636"/>
<polygon fill="black" stroke="black" points="1116.59,-632.5 1106.59,-636 1116.59,-639.5 1116.59,-632.5"/>
</g>
<!-- module.producer_lambda.aws_lambda_function.this -->
<g id="node15" class="node">
<title>module.producer_lambda.aws_lambda_function.this</title>
<polygon fill="none" stroke="black" points="1102,-490 906,-490 906,-454 1102,-454 1102,-490"/>
<text text-anchor="middle" x="1004" y="-468.3" font-family="sans-serif" font-size="14.00">aws_lambda_function.this</text>
</g>
<!-- module.apigw.aws_apigatewayv2_integration.lambda&#45;&gt;module.producer_lambda.aws_lambda_function.this -->
<g id="edge2" class="edge">
<title>module.apigw.aws_apigatewayv2_integration.lambda&#45;&gt;module.producer_lambda.aws_lambda_function.this</title>
<path fill="none" stroke="black" d="M1202.77,-621.89C1194.07,-618.35 1185.72,-614.1 1178,-609 1153,-592.48 1163.55,-572.82 1142,-552 1117.17,-528.02 1083.82,-508.34 1056.23,-494.51"/>
<polygon fill="black" stroke="black" points="1057.64,-491.3 1047.12,-490.04 1054.56,-497.58 1057.64,-491.3"/>
</g>
<!-- module.apigw.aws_apigatewayv2_route.get_job_id -->
<g id="node3" class="node">
<title>module.apigw.aws_apigatewayv2_route.get_job_id</title>
<polygon fill="none" stroke="black" points="1822.5,-762 1558.5,-762 1558.5,-726 1822.5,-726 1822.5,-762"/>
<text text-anchor="middle" x="1690.5" y="-740.3" font-family="sans-serif" font-size="14.00">aws_apigatewayv2_route.get_job_id</text>
</g>
<!-- module.apigw.aws_apigatewayv2_route.get_job_id&#45;&gt;module.apigw.aws_apigatewayv2_integration.lambda -->
<g id="edge3" class="edge">
<title>module.apigw.aws_apigatewayv2_route.get_job_id&#45;&gt;module.apigw.aws_apigatewayv2_integration.lambda</title>
<path fill="none" stroke="black" d="M1564.14,-725.88C1559.19,-723.27 1554.45,-720.32 1550,-717 1528.35,-700.82 1543.96,-678.77 1522,-663 1514.74,-657.79 1506.88,-653.41 1498.64,-649.75"/>
<polygon fill="black" stroke="black" points="1499.77,-646.43 1489.19,-645.91 1497.13,-652.92 1499.77,-646.43"/>
</g>
<!-- module.apigw.aws_apigatewayv2_route.get_jobs -->
<g id="node4" class="node">
<title>module.apigw.aws_apigatewayv2_route.get_jobs</title>
<polygon fill="none" stroke="black" points="1816.5,-708 1564.5,-708 1564.5,-672 1816.5,-672 1816.5,-708"/>
<text text-anchor="middle" x="1690.5" y="-686.3" font-family="sans-serif" font-size="14.00">aws_apigatewayv2_route.get_jobs</text>
</g>
<!-- module.apigw.aws_apigatewayv2_route.get_jobs&#45;&gt;module.apigw.aws_apigatewayv2_integration.lambda -->
<g id="edge4" class="edge">
<title>module.apigw.aws_apigatewayv2_route.get_jobs&#45;&gt;module.apigw.aws_apigatewayv2_integration.lambda</title>
<path fill="none" stroke="black" d="M1578.24,-671.96C1559.47,-668.95 1540.18,-665.87 1522,-663 1506.66,-660.58 1490.56,-658.06 1474.6,-655.58"/>
<polygon fill="black" stroke="black" points="1475.1,-652.12 1464.68,-654.05 1474.03,-659.04 1475.1,-652.12"/>
</g>
<!-- module.apigw.aws_apigatewayv2_route.options_jobs -->
<g id="node5" class="node">
<title>module.apigw.aws_apigatewayv2_route.options_jobs</title>
<polygon fill="none" stroke="black" points="1831,-654 1550,-654 1550,-618 1831,-618 1831,-654"/>
<text text-anchor="middle" x="1690.5" y="-632.3" font-family="sans-serif" font-size="14.00">aws_apigatewayv2_route.options_jobs</text>
</g>
<!-- module.apigw.aws_apigatewayv2_route.options_jobs&#45;&gt;module.apigw.aws_apigatewayv2_integration.lambda -->
<g id="edge5" class="edge">
<title>module.apigw.aws_apigatewayv2_route.options_jobs&#45;&gt;module.apigw.aws_apigatewayv2_integration.lambda</title>
<path fill="none" stroke="black" d="M1549.7,-636C1533.15,-636 1516.21,-636 1499.5,-636"/>
<polygon fill="black" stroke="black" points="1499.13,-632.5 1489.13,-636 1499.13,-639.5 1499.13,-632.5"/>
</g>
<!-- module.apigw.aws_apigatewayv2_route.post_jobs -->
<g id="node6" class="node">
<title>module.apigw.aws_apigatewayv2_route.post_jobs</title>
<polygon fill="none" stroke="black" points="1820.5,-600 1560.5,-600 1560.5,-564 1820.5,-564 1820.5,-600"/>
<text text-anchor="middle" x="1690.5" y="-578.3" font-family="sans-serif" font-size="14.00">aws_apigatewayv2_route.post_jobs</text>
</g>
<!-- module.apigw.aws_apigatewayv2_route.post_jobs&#45;&gt;module.apigw.aws_apigatewayv2_integration.lambda -->
<g id="edge6" class="edge">
<title>module.apigw.aws_apigatewayv2_route.post_jobs&#45;&gt;module.apigw.aws_apigatewayv2_integration.lambda</title>
<path fill="none" stroke="black" d="M1578.24,-600.04C1559.47,-603.05 1540.18,-606.13 1522,-609 1506.66,-611.42 1490.56,-613.94 1474.6,-616.42"/>
<polygon fill="black" stroke="black" points="1474.03,-612.96 1464.68,-617.95 1475.1,-619.88 1474.03,-612.96"/>
</g>
<!-- module.apigw.aws_apigatewayv2_stage.prod -->
<g id="node7" class="node">
<title>module.apigw.aws_apigatewayv2_stage.prod</title>
<polygon fill="none" stroke="black" points="1460,-708 1232,-708 1232,-672 1460,-672 1460,-708"/>
<text text-anchor="middle" x="1346" y="-686.3" font-family="sans-serif" font-size="14.00">aws_apigatewayv2_stage.prod</text>
</g>
<!-- module.apigw.aws_apigatewayv2_stage.prod&#45;&gt;module.apigw.aws_apigatewayv2_api.this -->
<g id="edge7" class="edge">
<title>module.apigw.aws_apigatewayv2_stage.prod&#45;&gt;module.apigw.aws_apigatewayv2_api.this</title>
<path fill="none" stroke="black" d="M1231.78,-672.02C1194.79,-666.14 1153.75,-659.62 1116.86,-653.77"/>
<polygon fill="black" stroke="black" points="1116.99,-650.24 1106.57,-652.13 1115.89,-657.16 1116.99,-650.24"/>
</g>
<!-- module.apigw.aws_cloudwatch_log_group.api_logs -->
<g id="node8" class="node">
<title>module.apigw.aws_cloudwatch_log_group.api_logs</title>
<polygon fill="none" stroke="black" points="1136.5,-708 871.5,-708 871.5,-672 1136.5,-672 1136.5,-708"/>
<text text-anchor="middle" x="1004" y="-686.3" font-family="sans-serif" font-size="14.00">aws_cloudwatch_log_group.api_logs</text>
</g>
<!-- module.apigw.aws_apigatewayv2_stage.prod&#45;&gt;module.apigw.aws_cloudwatch_log_group.api_logs -->
<g id="edge8" class="edge">
<title>module.apigw.aws_apigatewayv2_stage.prod&#45;&gt;module.apigw.aws_cloudwatch_log_group.api_logs</title>
<path fill="none" stroke="black" d="M1231.78,-690C1204.48,-690 1174.97,-690 1146.55,-690"/>
<polygon fill="black" stroke="black" points="1146.55,-686.5 1136.55,-690 1146.55,-693.5 1146.55,-686.5"/>
</g>
<!-- module.apigw.aws_lambda_permission.allow_http_api -->
<g id="node9" class="node">
<title>module.apigw.aws_lambda_permission.allow_http_api</title>
<polygon fill="none" stroke="black" points="1489.5,-600 1202.5,-600 1202.5,-564 1489.5,-564 1489.5,-600"/>
<text text-anchor="middle" x="1346" y="-578.3" font-family="sans-serif" font-size="14.00">aws_lambda_permission.allow_http_api</text>
</g>
<!-- module.apigw.aws_lambda_permission.allow_http_api&#45;&gt;module.apigw.aws_apigatewayv2_api.this -->
<g id="edge9" class="edge">
<title>module.apigw.aws_lambda_permission.allow_http_api&#45;&gt;module.apigw.aws_apigatewayv2_api.this</title>
<path fill="none" stroke="black" d="M1231.31,-600.06C1194.43,-605.91 1153.57,-612.4 1116.82,-618.24"/>
<polygon fill="black" stroke="black" points="1115.9,-614.84 1106.58,-619.87 1117,-621.76 1115.9,-614.84"/>
</g>
<!-- module.apigw.aws_lambda_permission.allow_http_api&#45;&gt;module.producer_lambda.aws_lambda_function.this -->
<g id="edge10" class="edge">
<title>module.apigw.aws_lambda_permission.allow_http_api&#45;&gt;module.producer_lambda.aws_lambda_function.this</title>
<path fill="none" stroke="black" d="M1289.24,-563.96C1229.21,-544.54 1133.81,-513.67 1070.31,-493.13"/>
<polygon fill="black" stroke="black" points="1071.39,-489.8 1060.79,-490.05 1069.23,-496.46 1071.39,-489.8"/>
</g>
<!-- module.job_queue.aws_sqs_queue.job_queue -->
<g id="node10" class="node">
<title>module.job_queue.aws_sqs_queue.job_queue</title>
<polygon fill="none" stroke="black" points="439.5,-243 239.5,-243 239.5,-207 439.5,-207 439.5,-243"/>
<text text-anchor="middle" x="339.5" y="-221.3" font-family="sans-serif" font-size="14.00">aws_sqs_queue.job_queue</text>
</g>
<!-- module.job_table.aws_dynamodb_table.this -->
<g id="node11" class="node">
<title>module.job_table.aws_dynamodb_table.this</title>
<polygon fill="none" stroke="black" points="437.5,-326 241.5,-326 241.5,-290 437.5,-290 437.5,-326"/>
<text text-anchor="middle" x="339.5" y="-304.3" font-family="sans-serif" font-size="14.00">aws_dynamodb_table.this</text>
</g>
<!-- module.producer_lambda.aws_iam_role.lambda_exec -->
<g id="node12" class="node">
<title>module.producer_lambda.aws_iam_role.lambda_exec</title>
<polygon fill="none" stroke="black" points="441,-436 238,-436 238,-400 441,-400 441,-436"/>
<text text-anchor="middle" x="339.5" y="-414.3" font-family="sans-serif" font-size="14.00">aws_iam_role.lambda_exec</text>
</g>
<!-- module.producer_lambda.aws_iam_role_policy.lambda_permissions -->
<g id="node13" class="node">
<title>module.producer_lambda.aws_iam_role_policy.lambda_permissions</title>
<polygon fill="none" stroke="black" points="803,-409 504,-409 504,-373 803,-373 803,-409"/>
<text text-anchor="middle" x="653.5" y="-387.3" font-family="sans-serif" font-size="14.00">aws_iam_role_policy.lambda_permissions</text>
</g>
<!-- module.producer_lambda.aws_iam_role_policy.lambda_permissions&#45;&gt;module.job_queue.aws_sqs_queue.job_queue -->
<g id="edge11" class="edge">
<title>module.producer_lambda.aws_iam_role_policy.lambda_permissions&#45;&gt;module.job_queue.aws_sqs_queue.job_queue</title>
<path fill="none" stroke="black" d="M620.78,-372.95C580.69,-350.27 509.44,-310.39 447.5,-278 428.01,-267.81 406.3,-256.96 387.56,-247.76"/>
<polygon fill="black" stroke="black" points="388.86,-244.5 378.34,-243.24 385.78,-250.78 388.86,-244.5"/>
</g>
<!-- module.producer_lambda.aws_iam_role_policy.lambda_permissions&#45;&gt;module.job_table.aws_dynamodb_table.this -->
<g id="edge12" class="edge">
<title>module.producer_lambda.aws_iam_role_policy.lambda_permissions&#45;&gt;module.job_table.aws_dynamodb_table.this</title>
<path fill="none" stroke="black" d="M584.8,-372.99C535.72,-359.93 469.25,-342.25 418.04,-328.63"/>
<polygon fill="black" stroke="black" points="418.9,-325.23 408.34,-326.05 417.1,-332 418.9,-325.23"/>
</g>
<!-- module.producer_lambda.aws_iam_role_policy.lambda_permissions&#45;&gt;module.producer_lambda.aws_iam_role.lambda_exec -->
<g id="edge13" class="edge">
<title>module.producer_lambda.aws_iam_role_policy.lambda_permissions&#45;&gt;module.producer_lambda.aws_iam_role.lambda_exec</title>
<path fill="none" stroke="black" d="M503.81,-403.87C486.26,-405.39 468.59,-406.92 451.69,-408.38"/>
<polygon fill="black" stroke="black" points="450.93,-404.93 441.27,-409.28 451.54,-411.9 450.93,-404.93"/>
</g>
<!-- module.producer_lambda.aws_iam_role_policy_attachment.lambda_basic -->
<g id="node14" class="node">
<title>module.producer_lambda.aws_iam_role_policy_attachment.lambda_basic</title>
<polygon fill="none" stroke="black" points="824,-463 483,-463 483,-427 824,-427 824,-463"/>
<text text-anchor="middle" x="653.5" y="-441.3" font-family="sans-serif" font-size="14.00">aws_iam_role_policy_attachment.lambda_basic</text>
</g>
<!-- module.producer_lambda.aws_iam_role_policy_attachment.lambda_basic&#45;&gt;module.producer_lambda.aws_iam_role.lambda_exec -->
<g id="edge14" class="edge">
<title>module.producer_lambda.aws_iam_role_policy_attachment.lambda_basic&#45;&gt;module.producer_lambda.aws_iam_role.lambda_exec</title>
<path fill="none" stroke="black" d="M482.8,-430.31C472.19,-429.4 461.67,-428.49 451.42,-427.6"/>
<polygon fill="black" stroke="black" points="451.55,-424.1 441.28,-426.72 450.94,-431.07 451.55,-424.1"/>
</g>
<!-- module.producer_lambda.aws_lambda_function.this&#45;&gt;module.job_queue.aws_sqs_queue.job_queue -->
<g id="edge15" class="edge">
<title>module.producer_lambda.aws_lambda_function.this&#45;&gt;module.job_queue.aws_sqs_queue.job_queue</title>
<path fill="none" stroke="black" d="M990.48,-453.78C964.92,-418.18 902.96,-339.68 830,-303 709.46,-242.4 552.97,-226.77 449.78,-223.76"/>
<polygon fill="black" stroke="black" points="449.73,-220.26 439.65,-223.5 449.55,-227.25 449.73,-220.26"/>
</g>
<!-- module.producer_lambda.aws_lambda_function.this&#45;&gt;module.job_table.aws_dynamodb_table.this -->
<g id="edge16" class="edge">
<title>module.producer_lambda.aws_lambda_function.this&#45;&gt;module.job_table.aws_dynamodb_table.this</title>
<path fill="none" stroke="black" d="M981.18,-453.82C949.9,-428.88 889.5,-384.78 830,-364 703.72,-319.9 549.06,-308.78 447.82,-306.81"/>
<polygon fill="black" stroke="black" points="447.64,-303.3 437.58,-306.63 447.52,-310.3 447.64,-303.3"/>
</g>
<!-- module.producer_lambda.aws_lambda_function.this&#45;&gt;module.producer_lambda.aws_iam_role_policy_attachment.lambda_basic -->
<g id="edge17" class="edge">
<title>module.producer_lambda.aws_lambda_function.this&#45;&gt;module.producer_lambda.aws_iam_role_policy_attachment.lambda_basic</title>
<path fill="none" stroke="black" d="M905.92,-464.48C883.53,-462.74 859.01,-460.84 834.34,-458.93"/>
<polygon fill="black" stroke="black" points="834.37,-455.43 824.13,-458.14 833.83,-462.4 834.37,-455.43"/>
</g>
<!-- module.producer_lambda.aws_s3_object.function_zip -->
<g id="node17" class="node">
<title>module.producer_lambda.aws_s3_object.function_zip</title>
<polygon fill="none" stroke="black" points="755.5,-517 551.5,-517 551.5,-481 755.5,-481 755.5,-517"/>
<text text-anchor="middle" x="653.5" y="-495.3" font-family="sans-serif" font-size="14.00">aws_s3_object.function_zip</text>
</g>
<!-- module.producer_lambda.aws_lambda_function.this&#45;&gt;module.producer_lambda.aws_s3_object.function_zip -->
<g id="edge18" class="edge">
<title>module.producer_lambda.aws_lambda_function.this&#45;&gt;module.producer_lambda.aws_s3_object.function_zip</title>
<path fill="none" stroke="black" d="M905.92,-479.52C862.39,-482.89 810.8,-486.89 765.72,-490.38"/>
<polygon fill="black" stroke="black" points="765.31,-486.9 755.61,-491.17 765.85,-493.88 765.31,-486.9"/>
</g>
<!-- module.producer_lambda.aws_s3_bucket.artifacts -->
<g id="node16" class="node">
<title>module.producer_lambda.aws_s3_bucket.artifacts</title>
<polygon fill="none" stroke="black" points="430.5,-517 248.5,-517 248.5,-481 430.5,-481 430.5,-517"/>
<text text-anchor="middle" x="339.5" y="-495.3" font-family="sans-serif" font-size="14.00">aws_s3_bucket.artifacts</text>
</g>
<!-- module.producer_lambda.random_id.bucket_suffix -->
<g id="node18" class="node">
<title>module.producer_lambda.random_id.bucket_suffix</title>
<polygon fill="none" stroke="black" points="202,-517 16,-517 16,-481 202,-481 202,-517"/>
<text text-anchor="middle" x="109" y="-495.3" font-family="sans-serif" font-size="14.00">random_id.bucket_suffix</text>
</g>
<!-- module.producer_lambda.aws_s3_bucket.artifacts&#45;&gt;module.producer_lambda.random_id.bucket_suffix -->
<g id="edge19" class="edge">
<title>module.producer_lambda.aws_s3_bucket.artifacts&#45;&gt;module.producer_lambda.random_id.bucket_suffix</title>
<path fill="none" stroke="black" d="M248.19,-499C236.4,-499 224.25,-499 212.28,-499"/>
<polygon fill="black" stroke="black" points="212.28,-495.5 202.28,-499 212.28,-502.5 212.28,-495.5"/>
</g>
<!-- module.producer_lambda.aws_s3_object.function_zip&#45;&gt;module.producer_lambda.aws_s3_bucket.artifacts -->
<g id="edge20" class="edge">
<title>module.producer_lambda.aws_s3_object.function_zip&#45;&gt;module.producer_lambda.aws_s3_bucket.artifacts</title>
<path fill="none" stroke="black" d="M551.2,-499C515.82,-499 476.13,-499 440.83,-499"/>
<polygon fill="black" stroke="black" points="440.51,-495.5 430.51,-499 440.51,-502.5 440.51,-495.5"/>
</g>
<!-- module.worker_lambda.aws_athena_workgroup.dash_wg -->
<g id="node19" class="node">
<title>module.worker_lambda.aws_athena_workgroup.dash_wg</title>
<polygon fill="none" stroke="black" points="776,-52 531,-52 531,-16 776,-16 776,-52"/>
<text text-anchor="middle" x="653.5" y="-30.3" font-family="sans-serif" font-size="14.00">aws_athena_workgroup.dash_wg</text>
</g>
<!-- module.worker_lambda.aws_iam_role.lambda_exec -->
<g id="node20" class="node">
<title>module.worker_lambda.aws_iam_role.lambda_exec</title>
<polygon fill="none" stroke="black" points="441,-133 238,-133 238,-97 441,-97 441,-133"/>
<text text-anchor="middle" x="339.5" y="-111.3" font-family="sans-serif" font-size="14.00">aws_iam_role.lambda_exec</text>
</g>
<!-- module.worker_lambda.aws_iam_role_policy.lambda_worker_permissions -->
<g id="node21" class="node">
<title>module.worker_lambda.aws_iam_role_policy.lambda_worker_permissions</title>
<polygon fill="none" stroke="black" points="830,-160 477,-160 477,-124 830,-124 830,-160"/>
<text text-anchor="middle" x="653.5" y="-138.3" font-family="sans-serif" font-size="14.00">aws_iam_role_policy.lambda_worker_permissions</text>
</g>
<!-- module.worker_lambda.aws_iam_role_policy.lambda_worker_permissions&#45;&gt;module.job_queue.aws_sqs_queue.job_queue -->
<g id="edge21" class="edge">
<title>module.worker_lambda.aws_iam_role_policy.lambda_worker_permissions&#45;&gt;module.job_queue.aws_sqs_queue.job_queue</title>
<path fill="none" stroke="black" d="M584.8,-160.01C535.72,-173.07 469.25,-190.75 418.04,-204.37"/>
<polygon fill="black" stroke="black" points="417.1,-201 408.34,-206.95 418.9,-207.77 417.1,-201"/>
</g>
<!-- module.worker_lambda.aws_iam_role_policy.lambda_worker_permissions&#45;&gt;module.job_table.aws_dynamodb_table.this -->
<g id="edge22" class="edge">
<title>module.worker_lambda.aws_iam_role_policy.lambda_worker_permissions&#45;&gt;module.job_table.aws_dynamodb_table.this</title>
<path fill="none" stroke="black" d="M630.22,-160.22C594,-189.03 519.14,-245.18 447.5,-278 440.75,-281.09 433.61,-283.93 426.34,-286.53"/>
<polygon fill="black" stroke="black" points="424.73,-283.38 416.39,-289.92 426.99,-290.01 424.73,-283.38"/>
</g>
<!-- module.worker_lambda.aws_iam_role_policy.lambda_worker_permissions&#45;&gt;module.worker_lambda.aws_iam_role.lambda_exec -->
<g id="edge23" class="edge">
<title>module.worker_lambda.aws_iam_role_policy.lambda_worker_permissions&#45;&gt;module.worker_lambda.aws_iam_role.lambda_exec</title>
<path fill="none" stroke="black" d="M476.89,-126.8C468.22,-126.05 459.64,-125.31 451.24,-124.58"/>
<polygon fill="black" stroke="black" points="451.37,-121.08 441.1,-123.71 450.77,-128.06 451.37,-121.08"/>
</g>
<!-- module.worker_lambda.aws_iam_role_policy_attachment.lambda_basic -->
<g id="node22" class="node">
<title>module.worker_lambda.aws_iam_role_policy_attachment.lambda_basic</title>
<polygon fill="none" stroke="black" points="824,-106 483,-106 483,-70 824,-70 824,-106"/>
<text text-anchor="middle" x="653.5" y="-84.3" font-family="sans-serif" font-size="14.00">aws_iam_role_policy_attachment.lambda_basic</text>
</g>
<!-- module.worker_lambda.aws_iam_role_policy_attachment.lambda_basic&#45;&gt;module.worker_lambda.aws_iam_role.lambda_exec -->
<g id="edge24" class="edge">
<title>module.worker_lambda.aws_iam_role_policy_attachment.lambda_basic&#45;&gt;module.worker_lambda.aws_iam_role.lambda_exec</title>
<path fill="none" stroke="black" d="M482.8,-102.69C472.19,-103.6 461.67,-104.51 451.42,-105.4"/>
<polygon fill="black" stroke="black" points="450.94,-101.93 441.28,-106.28 451.55,-108.9 450.94,-101.93"/>
</g>
<!-- module.worker_lambda.aws_lambda_event_source_mapping.from_sqs -->
<g id="node23" class="node">
<title>module.worker_lambda.aws_lambda_event_source_mapping.from_sqs</title>
<polygon fill="none" stroke="black" points="1514,-147 1178,-147 1178,-111 1514,-111 1514,-147"/>
<text text-anchor="middle" x="1346" y="-125.3" font-family="sans-serif" font-size="14.00">aws_lambda_event_source_mapping.from_sqs</text>
</g>
<!-- module.worker_lambda.aws_lambda_event_source_mapping.from_sqs&#45;&gt;module.job_queue.aws_sqs_queue.job_queue -->
<g id="edge25" class="edge">
<title>module.worker_lambda.aws_lambda_event_source_mapping.from_sqs&#45;&gt;module.job_queue.aws_sqs_queue.job_queue</title>
<path fill="none" stroke="black" d="M1178,-144.96C971.27,-164.72 625.1,-197.8 449.6,-214.57"/>
<polygon fill="black" stroke="black" points="449.2,-211.1 439.58,-215.53 449.87,-218.06 449.2,-211.1"/>
</g>
<!-- module.worker_lambda.aws_lambda_function.worker_lambda -->
<g id="node24" class="node">
<title>module.worker_lambda.aws_lambda_function.worker_lambda</title>
<polygon fill="none" stroke="black" points="1142,-106 866,-106 866,-70 1142,-70 1142,-106"/>
<text text-anchor="middle" x="1004" y="-84.3" font-family="sans-serif" font-size="14.00">aws_lambda_function.worker_lambda</text>
</g>
<!-- module.worker_lambda.aws_lambda_event_source_mapping.from_sqs&#45;&gt;module.worker_lambda.aws_lambda_function.worker_lambda -->
<g id="edge26" class="edge">
<title>module.worker_lambda.aws_lambda_event_source_mapping.from_sqs&#45;&gt;module.worker_lambda.aws_lambda_function.worker_lambda</title>
<path fill="none" stroke="black" d="M1195.38,-110.96C1181.11,-109.24 1166.65,-107.49 1152.41,-105.78"/>
<polygon fill="black" stroke="black" points="1152.43,-102.25 1142.08,-104.53 1151.59,-109.2 1152.43,-102.25"/>
</g>
<!-- module.worker_lambda.aws_lambda_function.worker_lambda&#45;&gt;module.worker_lambda.aws_athena_workgroup.dash_wg -->
<g id="edge27" class="edge">
<title>module.worker_lambda.aws_lambda_function.worker_lambda&#45;&gt;module.worker_lambda.aws_athena_workgroup.dash_wg</title>
<path fill="none" stroke="black" d="M887.61,-69.96C868.38,-66.96 848.62,-63.89 830,-61 814.48,-58.6 798.2,-56.08 782.06,-53.59"/>
<polygon fill="black" stroke="black" points="782.45,-50.11 772.04,-52.05 781.39,-57.03 782.45,-50.11"/>
</g>
<!-- module.worker_lambda.aws_lambda_function.worker_lambda&#45;&gt;module.worker_lambda.aws_iam_role_policy_attachment.lambda_basic -->
<g id="edge28" class="edge">
<title>module.worker_lambda.aws_lambda_function.worker_lambda&#45;&gt;module.worker_lambda.aws_iam_role_policy_attachment.lambda_basic</title>
<path fill="none" stroke="black" d="M865.76,-88C855.37,-88 844.79,-88 834.19,-88"/>
<polygon fill="black" stroke="black" points="834.02,-84.5 824.02,-88 834.02,-91.5 834.02,-84.5"/>
</g>
<!-- module.worker_lambda.random_id.bucket_suffix -->
<g id="node25" class="node">
<title>module.worker_lambda.random_id.bucket_suffix</title>
<polygon fill="none" stroke="black" points="1439,-66 1253,-66 1253,-30 1439,-30 1439,-66"/>
<text text-anchor="middle" x="1346" y="-44.3" font-family="sans-serif" font-size="14.00">random_id.bucket_suffix</text>
</g>
</g>
</svg>
